<?xml version="1.0" standalone="no"?>
<!DOCTYPE svg PUBLIC "-//W3C//DTD SVG 20010904//EN"
 "http://www.w3.org/TR/2001/REC-SVG-20010904/DTD/svg10.dtd">
<svg version="1.0" xmlns="http://www.w3.org/2000/svg"
 width="90.000000pt" height="90.000000pt" viewBox="0 0 90.000000 90.000000"
 preserveAspectRatio="xMidYMid meet">
<metadata>
Created by potrace 1.14, written by Peter Selinger 2001-2017
</metadata>
<g transform="translate(0.000000,90.000000) scale(0.100000,-0.100000)"
fill="#000000" stroke="none">
<path d="M334 889 c-3 -5 -13 -9 -22 -9 -35 0 -139 -64 -187 -115 -84 -89
-124 -189 -125 -310 0 -44 5 -98 12 -120 6 -22 12 -42 13 -45 9 -36 59 -112
106 -159 32 -33 59 -58 59 -55 0 3 17 -7 37 -21 21 -14 42 -25 48 -25 5 0 22
-6 36 -14 31 -16 232 -20 258 -5 9 5 39 18 68 29 29 10 62 27 74 37 45 36 111
108 126 138 9 16 19 32 23 35 3 3 14 35 24 71 18 68 21 224 5 245 -5 6 -10 19
-12 30 -5 24 -38 93 -57 118 -40 52 -115 115 -167 141 -32 16 -62 28 -67 27
-4 -2 -13 1 -20 7 -14 11 -224 12 -232 0z m193 -184 c0 -8 -4 -12 -9 -9 -5 3
-6 10 -3 15 9 13 12 11 12 -6z m-322 -74 c3 -5 2 -12 -3 -15 -5 -3 -9 1 -9 9
0 17 3 19 12 6z m159 -9 c3 -5 -1 -9 -9 -9 -8 0 -12 4 -9 9 3 4 7 8 9 8 2 0 6
-4 9 -8z m121 -311 c3 -5 2 -12 -3 -15 -5 -3 -9 1 -9 9 0 17 3 19 12 6z m240
0 c3 -5 2 -12 -3 -15 -5 -3 -9 1 -9 9 0 17 3 19 12 6z m-195 -165 c0 -3 -4 -8
-10 -11 -5 -3 -10 -1 -10 4 0 6 5 11 10 11 6 0 10 -2 10 -4z"/>
</g>
</svg>
